HIERARCHY
ROOT Hips
{
	OFFSET 0.000000 0.000000 0.000000
	CHANNELS 6 Xposition Yposition Zposition Zrotation Yrotation Xrotation 
	JOINT LeftUpLeg_virtual
	{
		OFFSET 0.000000 0.000000 0.000000
		CHANNELS 3 Zrotation Yrotation Xrotation
		JOINT LeftUpLeg
		{
			OFFSET 10.205400 -3.823500 0.155100
			CHANNELS 3 Zrotation Yrotation Xrotation
			JOINT LeftLeg
			{
				OFFSET 0.708757 -12.982077 0.567790
				CHANNELS 3 Zrotation Yrotation Xrotation
				JOINT LeftFoot
				{
					OFFSET -0.708756 -10.717838 -2.184338
					CHANNELS 3 Zrotation Yrotation Xrotation
					JOINT LeftToeBase
					{
						OFFSET 0.108149 -7.191104 7.560241
						CHANNELS 3 Zrotation Yrotation Xrotation
						End Site
						{
							OFFSET 0.000000 0.000000 0.000000
						}
					}
				}
			}
		}
	}
	JOINT RightUpLeg_virtual
	{
		OFFSET 0.000000 0.000000 0.000000
		CHANNELS 3 Zrotation Yrotation Xrotation
		JOINT RightUpLeg
		{
			OFFSET -10.205400 -3.823500 0.005500
			CHANNELS 3 Zrotation Yrotation Xrotation
			JOINT RightLeg
			{
				OFFSET -0.708756 -12.982134 0.610632
				CHANNELS 3 Zrotation Yrotation Xrotation
				JOINT RightFoot
				{
					OFFSET 0.708754 -10.717769 -1.945823
					CHANNELS 3 Zrotation Yrotation Xrotation
					JOINT RightToeBase
					{
						OFFSET -0.108140 -7.191069 7.372968
						CHANNELS 3 Zrotation Yrotation Xrotation
						End Site
						{
							OFFSET 0.000000 0.000000 0.000000
						}
					}
				}
			}
		}
	}
	JOINT Spine_virtual
	{
		OFFSET 0.000000 0.000000 0.000000
		CHANNELS 3 Zrotation Yrotation Xrotation
		JOINT Spine
		{
			OFFSET 0.000000 6.876099 0.125700
			CHANNELS 3 Zrotation Yrotation Xrotation
			JOINT Spine1
			{
				OFFSET 0.000000 8.022060 0.146608
				CHANNELS 3 Zrotation Yrotation Xrotation
				JOINT Spine2
				{
					OFFSET 0.000000 9.168068 0.167552
					CHANNELS 3 Zrotation Yrotation Xrotation
					JOINT Neck_virtual
					{
						OFFSET 0.000000 0.000000 0.000000
						CHANNELS 3 Zrotation Yrotation Xrotation
						JOINT Neck
						{
							OFFSET 0.000000 10.314075 0.188496
							CHANNELS 3 Zrotation Yrotation Xrotation
							JOINT Head
							{
								OFFSET 0.000000 7.643700 -2.377400
								CHANNELS 3 Zrotation Yrotation Xrotation
								End Site
								{
									OFFSET 0.000000 0.000000 0.000000
								}
							}
						}
					}
					JOINT LeftShoulder_virtual
					{
						OFFSET 0.000000 0.000000 0.000000
						CHANNELS 3 Zrotation Yrotation Xrotation
						JOINT LeftShoulder
						{
							OFFSET 4.392200 8.824978 0.174984
							CHANNELS 3 Zrotation Yrotation Xrotation
							JOINT LeftArm
							{
								OFFSET 8.771219 -2.981674 -0.026999
								CHANNELS 3 Zrotation Yrotation Xrotation
								JOINT LeftForeArm
								{
									OFFSET 8.512804 0.000000 -0.000000
									CHANNELS 3 Zrotation Yrotation Xrotation
									JOINT LeftHand
									{
										OFFSET 18.484802 0.000000 -0.000000
										CHANNELS 3 Zrotation Yrotation Xrotation
										End Site
										{
											OFFSET 0.000000 0.000000 0.000000
										}
									}
								}
							}
						}
					}
					JOINT RightShoulder_virtual
					{
						OFFSET 0.000000 0.000000 0.000000
						CHANNELS 3 Zrotation Yrotation Xrotation
						JOINT RightShoulder
						{
							OFFSET -4.392200 8.824993 0.141379
							CHANNELS 3 Zrotation Yrotation Xrotation
							JOINT RightArm
							{
								OFFSET -8.771282 -2.981682 -0.094208
								CHANNELS 3 Zrotation Yrotation Xrotation
								JOINT RightForeArm
								{
									OFFSET -8.494598 0.000000 0.000000
									CHANNELS 3 Zrotation Yrotation Xrotation
									JOINT RightHand
									{
										OFFSET -18.483803 0.000000 0.000001
										CHANNELS 3 Zrotation Yrotation Xrotation
										End Site
										{
											OFFSET 0.000000 0.000000 0.000000
										}
									}
								}
							}
						}
					}
				}
			}
		}
	}
}
MOTION
Frames: 7
Frame Time: 0.033333
-39.118053 35.944752 77.598656 -179.628374 83.467118 -179.782709 -2.034038 -1.584311 11.964752 -20.253379 6.563355 -24.464891 19.356538 13.753878 20.555902 -9.912191 -4.355793 9.263994 0.000000 0.000000 0.000000 4.801367 -1.005432 8.971997 0.500931 5.620893 -29.024158 -9.882140 3.069645 9.711208 4.087790 6.731859 21.458062 0.000000 0.000000 0.000000 1.598613 2.163415 1.547088 1.276094 -1.977750 -7.997588 -1.494902 -1.963911 9.471393 -0.017474 0.033158 -0.086086 -1.865910 0.173911 12.433663 -2.081072 -0.261458 14.426504 0.000000 0.000000 0.000000 0.133247 0.841312 9.200782 -11.292572 -4.313863 1.207097 -57.964134 13.195409 16.784917 2.340417 -40.003161 10.142473 0.000000 0.000000 0.000000 -4.558000 2.161433 8.427196 27.011691 2.673738 -1.801318 48.559862 -26.662186 20.640909 -9.754634 39.892044 -2.694226 0.000000 0.000000 0.000000 
-39.200714 35.935089 77.748123 179.363363 83.587329 178.898118 -2.372264 -1.415893 11.900176 -20.470874 6.904558 -24.578414 19.310550 14.033948 20.234413 -9.723691 -4.237579 8.945541 0.000000 0.000000 0.000000 5.361024 -0.900517 8.756084 -0.834273 6.294008 -29.479769 -9.969777 6.410195 9.040536 4.711233 6.822033 21.761539 0.000000 0.000000 0.000000 1.393203 2.255420 2.009836 1.238929 -2.058681 -7.705945 -1.484051 -1.981549 9.515678 -0.002586 0.004944 -0.132542 -1.837725 0.164855 12.299355 -2.048827 -0.184060 14.270004 0.000000 0.000000 0.000000 0.238270 0.947619 9.069618 -11.320304 -4.104024 1.134269 -58.049785 13.541116 16.854185 2.349977 -39.746804 10.206538 0.000000 0.000000 0.000000 -4.523301 2.229109 8.356229 26.998081 2.687970 -1.769073 48.630882 -26.851087 20.642691 -9.752031 39.697708 -2.687658 0.000000 0.000000 0.000000 
-39.284100 35.923607 77.929932 178.867245 83.457282 178.203624 -2.393453 -1.611312 11.955222 -20.484212 7.300720 -24.655393 19.391805 13.485842 20.112151 -9.701443 -4.218949 8.968730 0.000000 0.000000 0.000000 5.707541 -0.577856 8.656905 -2.296771 6.525454 -30.066506 -10.429132 6.437726 8.864624 8.335956 8.379563 23.037147 0.000000 0.000000 0.000000 1.235014 2.421273 2.387808 1.273512 -2.107516 -7.364297 -1.455270 -1.969120 9.614047 0.077001 0.031017 -0.103115 -1.834758 0.184785 12.250581 -2.140072 -0.128109 13.957960 0.000000 0.000000 0.000000 0.202421 0.697871 9.115250 -11.390796 -4.388234 1.163476 -58.171717 13.675887 17.143157 2.471203 -39.139760 10.155812 0.000000 0.000000 0.000000 -4.525056 2.133309 8.287168 26.836273 2.586488 -1.715171 48.832892 -27.160608 20.870176 -9.841025 39.409047 -2.704255 0.000000 0.000000 0.000000 
-39.359989 35.903488 78.114120 179.396667 83.310563 178.538495 -2.235773 -1.765310 12.025581 -20.244887 6.571942 -24.576496 19.501157 12.889183 19.990640 -9.626195 -4.072174 8.979930 0.000000 0.000000 0.000000 6.024932 -0.292518 8.579379 -3.484384 6.687064 -30.702838 -10.228535 6.524770 8.729348 10.313386 10.134137 24.455448 0.000000 0.000000 0.000000 1.242980 2.333716 2.807871 1.367308 -2.252114 -6.922494 -1.504489 -2.033464 9.762544 0.035658 -0.067419 -0.212147 -1.884629 0.264076 12.305308 -2.317251 0.018073 13.459753 0.000000 0.000000 0.000000 0.176412 0.807582 9.260066 -11.497995 -4.737753 1.243860 -58.145926 13.589843 17.440210 2.672283 -38.449973 10.066819 0.000000 0.000000 0.000000 -4.549659 2.231389 8.367941 26.553503 2.654372 -1.703875 49.190131 -27.448992 20.993845 -9.988013 39.277710 -2.741180 0.000000 0.000000 0.000000 
-39.420452 35.874928 78.299622 178.869855 83.072046 177.798444 -2.130489 -1.949675 12.085367 -19.790060 5.033713 -24.382095 19.579791 12.646112 19.945431 -9.142285 -3.454737 9.028813 0.000000 0.000000 0.000000 5.944725 0.041913 8.554695 -3.617042 6.704408 -31.187238 -10.241753 6.795754 8.609220 10.616830 11.411043 25.850227 0.000000 0.000000 0.000000 1.225574 2.377185 3.246686 1.415256 -2.393998 -6.426861 -1.648953 -2.030971 9.923412 0.060755 -0.136225 -0.151777 -1.905873 0.111776 12.410285 -2.464442 0.307171 12.948027 0.000000 0.000000 0.000000 0.153745 0.663020 9.315997 -11.547919 -5.354707 1.388463 -58.099112 13.211980 17.673997 2.818569 -37.820018 10.043500 0.000000 0.000000 0.000000 -4.612239 2.158460 8.393592 26.144151 2.630605 -1.786331 49.610792 -27.908908 21.525182 -10.120590 39.182302 -2.751332 0.000000 0.000000 0.000000 
-39.461826 35.857021 78.489304 178.396755 83.116695 177.267301 -2.055919 -1.903070 12.168220 -19.504070 3.890922 -24.365703 19.752963 12.217238 19.771079 -8.863517 -2.936746 9.027716 0.000000 0.000000 0.000000 5.613371 0.107905 8.731741 -2.838280 6.175174 -31.438326 -9.636710 6.703807 8.684192 9.701185 11.365825 25.847381 0.000000 0.000000 0.000000 1.179787 2.364200 3.691127 1.482764 -2.597007 -5.921498 -1.731307 -2.028781 9.959662 0.069893 -0.114545 -0.146038 -2.037851 0.207988 12.549436 -2.690594 0.608931 12.410483 0.000000 0.000000 0.000000 -0.000684 0.768762 9.534049 -11.604055 -5.921662 1.659475 -57.866920 12.552430 17.808176 3.073670 -37.471996 9.954344 0.000000 0.000000 0.000000 -4.769776 2.256644 8.646400 25.700581 2.672544 -1.637075 50.156446 -28.243676 21.720697 -10.359639 39.364539 -2.949615 0.000000 0.000000 0.000000 
-39.469376 35.843082 78.663300 178.597180 83.089026 177.439121 -1.932320 -1.769234 12.339922 -19.519670 3.612793 -24.528420 20.049069 11.416872 19.490066 -8.698472 -3.188848 9.172910 0.000000 0.000000 0.000000 5.582344 0.229757 9.011949 -2.531887 5.987746 -31.755657 -9.135536 6.621379 8.833852 9.044014 11.478016 25.630034 0.000000 0.000000 0.000000 1.252572 2.426953 4.192233 1.571359 -2.750732 -5.437488 -1.836683 -1.981419 10.030154 0.070499 -0.090285 -0.097601 -2.137005 0.222264 12.700981 -3.011617 0.888214 11.685223 0.000000 0.000000 0.000000 -0.123994 0.780125 9.765454 -11.546503 -6.652133 1.735549 -57.563598 11.840721 17.857091 3.112912 -37.239947 10.080733 0.000000 0.000000 0.000000 -4.888015 2.233007 8.821422 25.154210 2.678403 -1.555652 50.599783 -28.683748 22.153307 -10.608584 39.588705 -2.952593 0.000000 0.000000 0.000000 
